<?xml version="1.0" encoding="utf-8"?>
<!-- Generator: Adobe Illustrator 25.2.3, SVG Export Plug-In . SVG Version: 6.00 Build 0)  -->
<svg version="1.1" id="Layer_1" xmlns="http://www.w3.org/2000/svg" xmlns:xlink="http://www.w3.org/1999/xlink" x="0px" y="0px"
	 viewBox="0 0 409.6 333.3" style="enable-background:new 0 0 409.6 333.3;" xml:space="preserve">
<style type="text/css">
	.st0{fill:#FFFFFF;}
</style>
<path id="_x30_4.Twitter" class="st0" d="M409.1,39.4c-15.4,6.7-31.2,11.3-48.1,13.3c17.4-10.2,30.7-26.6,36.9-46.6
	c-16.4,9.7-34.3,16.4-53.2,20.5C329.2,10.2,307.2,0,283.1,0c-46.6,0-84,37.9-84,84c0,6.7,0.5,12.8,2,18.9
	C131.6,99.8,70.1,66,28.7,15.4C-1,68.6,32.3,112.6,54.3,127.5c-13.3,0-26.6-4.1-37.9-10.2c0,41.5,29.2,75.8,67.1,83.5
	c-8.2,2.6-26.6,4.1-37.9,1.5c10.8,33.3,42,57.9,78.3,58.4c-28.7,22.5-70.7,40.4-124.4,34.8c37.4,24.1,81.4,37.9,129,37.9
	c154.6,0,238.6-128,238.6-238.6c0-3.6,0-7.2-0.5-10.8C384,71.2,398.3,56.3,409.1,39.4L409.1,39.4z"/>
</svg>
